<svg xmlns="http://www.w3.org/2000/svg" viewBox="0 0 275.2 283.37"><defs><style>.cls-1{fill:#b3e59f;}.cls-2{fill:#95d6a4;}.cls-3{fill:#f9f6f9;}.cls-4{fill:#dddaec;}</style></defs><title>Fichier 1</title><g id="Calque_2" data-name="Calque 2"><g id="Capa_1" data-name="Capa 1"><ellipse class="cls-1" cx="137.6" cy="141.68" rx="137.6" ry="141.68"/><path class="cls-2" d="M159.9,281.51a134.52,134.52,0,0,1-22.31,1.86C61.6,283.37,0,219.94,0,141.68S61.6,0,137.59,0A134.52,134.52,0,0,1,159.9,1.86c-65.38,11-115.28,69.4-115.28,139.82S94.52,270.54,159.9,281.51Z"/><path class="cls-3" d="M203.13,101.72A12.64,12.64,0,0,0,197.67,85l-18.73-9.55a11.93,11.93,0,0,0-16.21,5.63l-37.07,77-18-31.08A11.9,11.9,0,0,0,91,122.72l-17.94,11a12.67,12.67,0,0,0-4.17,17.08l35.57,61.26a12,12,0,0,0,10.85,6.05l25.21-1a12.06,12.06,0,0,0,10.35-6.91Z"/><path class="cls-4" d="M133.2,171.08l43.32-90a12.25,12.25,0,0,1,4.07-4.79l-1.65-.84a11.93,11.93,0,0,0-16.21,5.63l-37.07,77Z"/><path class="cls-4" d="M118.27,212.1,82.7,150.84a12.67,12.67,0,0,1,4.17-17.08l17.22-10.6A11.78,11.78,0,0,0,91,122.72l-17.94,11a12.67,12.67,0,0,0-4.17,17.08l35.57,61.25a12,12,0,0,0,10.85,6.06l10.21-.41a12.14,12.14,0,0,1-7.27-5.64Z"/></g></g></svg>