<?xml version="1.0" encoding="utf-8"?>
<!-- Generator: Adobe Illustrator 23.0.2, SVG Export Plug-In . SVG Version: 6.00 Build 0)  -->
<svg version="1.1" id="Calque_1" xmlns="http://www.w3.org/2000/svg" xmlns:xlink="http://www.w3.org/1999/xlink" x="0px" y="0px"
	 viewBox="0 0 512 512" style="enable-background:new 0 0 512 512;" xml:space="preserve">
<g>
	<g>
		<path d="M371.1,317.9c-17.3-17.9-37.9-31.1-60.3-39.1c24.1-17.1,39.9-45.8,39.9-78.2c0-52.3-41.2-94.9-91.8-94.9
			S167,148.2,167,200.6c0,32.4,15.8,61.1,39.9,78.2c-22.5,8-43,21.2-60.3,39.1c-30,31-46.5,72.2-46.5,116h24.8
			c0-76.4,60.1-138.5,134-138.5s134,62.1,134,138.5h24.8C417.6,390.1,401,348.9,371.1,317.9z M258.8,269.8c-36.9,0-67-31.1-67-69.2
			s30-69.2,67-69.2s67,31.1,67,69.2S295.7,269.8,258.8,269.8z"/>
	</g>
</g>
<g>
	<g>
		<path d="M257.3-1.5c-141.5,0-256,114.5-256,256c0,141.5,114.5,256,256,256c141.5,0,256-114.5,256-256
			C513.3,113,398.8-1.5,257.3-1.5z M257.3,476.4c-122.3,0-221.9-99.5-221.9-221.9S134.9,32.7,257.3,32.7s221.9,99.5,221.9,221.9
			S379.6,476.4,257.3,476.4z"/>
	</g>
</g>
</svg>
