<svg xmlns="http://www.w3.org/2000/svg" viewBox="0 0 317.63 317.63"><defs><style>.cls-1{fill:#dd5790;}.cls-2{fill:#da387d;}.cls-3{fill:#f9f6f9;}.cls-4{fill:#dddaec;}</style></defs><title>Fichier 2</title><g id="Calque_2" data-name="Calque 2"><g id="Capa_1" data-name="Capa 1"><circle class="cls-1" cx="158.81" cy="158.81" r="158.81"/><path class="cls-2" d="M184.56,315.55a160.83,160.83,0,0,1-25.75,2.08A158.81,158.81,0,1,1,184.56,2.09a158.84,158.84,0,0,0,0,313.46Z"/><path class="cls-3" d="M221,183.19l-24.38-24.38L221,134.43a15.41,15.41,0,0,0,0-21.78L205,96.59a15.4,15.4,0,0,0-21.79,0L158.81,121,134.43,96.59a15.39,15.39,0,0,0-21.78,0L96.59,112.65a15.39,15.39,0,0,0,0,21.78L121,158.81,96.59,183.19a15.39,15.39,0,0,0,0,21.78L112.65,221a15.4,15.4,0,0,0,21.79,0l24.37-24.37L183.19,221A15.42,15.42,0,0,0,205,221L221,205A15.42,15.42,0,0,0,221,183.19Z"/><path class="cls-4" d="M130.49,221,114.43,205a15.4,15.4,0,0,1,0-21.79l24.38-24.38-24.38-24.38a15.39,15.39,0,0,1,0-21.78l16.06-16.06a15.25,15.25,0,0,1,2-1.65,15.39,15.39,0,0,0-19.81,1.65L96.59,112.65a15.39,15.39,0,0,0,0,21.78L121,158.81,96.59,183.19a15.4,15.4,0,0,0,0,21.79L112.65,221a15.39,15.39,0,0,0,19.81,1.65,15.25,15.25,0,0,1-2-1.65Z"/><path class="cls-4" d="M167.73,129.89,201,96.59a16,16,0,0,1,2-1.65,15.39,15.39,0,0,0-19.81,1.65L158.81,121Z"/><path class="cls-4" d="M201,221l-33.3-33.3-8.92,8.92L183.19,221A15.4,15.4,0,0,0,203,222.68,16.79,16.79,0,0,1,201,221Z"/></g></g></svg>