<?xml version="1.0" encoding="utf-8"?>
<!-- Generator: Adobe Illustrator 23.0.2, SVG Export Plug-In . SVG Version: 6.00 Build 0)  -->
<svg version="1.1" id="Calque_1" xmlns="http://www.w3.org/2000/svg" xmlns:xlink="http://www.w3.org/1999/xlink" x="0px" y="0px"
	 viewBox="0 0 201 447" style="enable-background:new 0 0 201 447;" xml:space="preserve">
<style type="text/css">
	.st0{fill:#455A64;}
	.st1{fill:#FF725E;}
	.st2{fill:#263238;}
	.st3{opacity:0.3;}
	.st4{fill:#EBEBEB;}
	.st5{fill:#FFFFFF;}
</style>
<g id="freepik--Bouquet--inject-91">
	<path class="st0" d="M109.68,222.06c-0.07-0.13-0.13-0.27-0.17-0.41l-0.45-1.22c-0.19-0.54-0.46-1.2-0.71-2l-0.8-2.77
		c-1.54-5.95-2.28-12.08-2.2-18.23c0.16-9.12,1.44-18.19,3.81-27c2.54-10,6.46-20.57,10.47-31.7s7.59-21.85,9.54-31.91
		c1.83-8.9,2.37-18.01,1.6-27.06c-0.56-6.09-1.99-12.08-4.26-17.76c-0.43-1-0.82-1.87-1.15-2.64s-0.7-1.37-0.95-1.88l-0.58-1.16
		c-0.13-0.27-0.19-0.4-0.19-0.41c0.09,0.12,0.16,0.25,0.23,0.38l0.64,1.14c0.26,0.5,0.63,1.11,1,1.87l1.2,2.62
		c2.35,5.69,3.85,11.69,4.44,17.81c0.82,9.08,0.31,18.24-1.5,27.18c-1.93,10.11-5.51,20.86-9.52,32s-7.93,21.72-10.49,31.64
		c-2.38,8.76-3.7,17.77-3.91,26.85c-0.11,6.12,0.56,12.23,2,18.18c0.29,1,0.54,2,0.76,2.78s0.48,1.46,0.66,2s0.3,0.94,0.4,1.24
		C109.61,221.75,109.65,221.9,109.68,222.06z"/>
	<path class="st1" d="M136.88,194.18c7.17,1.59,12.27,1.56,21.33-3.4c6.37-3.64,12.4-7.85,18-12.58c-12.51-1.06-31.91,5.87-39.36,16
		"/>
	<path class="st1" d="M136.29,193.43c-4.62-3.76-9-12.74-9.35-20c-0.29-7.26,1.74-14.43,5.81-20.45c6.08,4.74,9.74,11.93,10,19.63
		c0.21,7.6-0.73,15.83-6.5,20.77"/>
	<path class="st1" d="M142.59,189.25c4.69-4,7.8-9.61,10.07-15.35c1.74-4.42,3.07-9.11,2.87-13.85s-2.11-9.55-5.81-12.55
		c-1.47,5.69-5.37,10.38-9.21,14.82s-7.84,9-9.58,14.62s0.47,13.23,5.36,16.47l-0.05-0.16
		C138.54,192.23,140.68,190.88,142.59,189.25z"/>
	<path class="st1" d="M172.14,162.72c-4.45-1.41-7.52-1.17-12.11-0.24s-8.95,4.91-11.37,8.92c-2.09,3.44-2.48,7.64-4.08,11.33
		c-2,4.53-5.42,7-8.29,10.7c6.16,2.87,7.31,2.12,13.6,0.31c6.51-1.88,12.86-9.49,15.14-15.63
		C168.2,169.53,167.23,166.62,172.14,162.72"/>
	<path class="st1" d="M167.93,156.09c-0.35-0.53-0.92-0.88-1.55-0.94c-2.03-0.43-4.14-0.43-6.17,0c0.18-1.43-0.08-2.87-0.76-4.14
		c-0.39-0.6-1-1.02-1.7-1.18c-1.26-0.27-2,0.53-2.63,1.32c-1.53,1.94-2.76,4.11-3.63,6.42l3.72,12.34c3.12,0.44,6.23-1.31,8.26-3.73
		s3.18-5.43,4.29-8.38C168.05,157.28,168.11,156.66,167.93,156.09z"/>
	<path class="st1" d="M164.65,154.32c-0.02-1.66-1.38-2.98-3.03-2.96c-0.6,0.01-1.18,0.19-1.68,0.54l-1.29-0.1
		c-0.57,1.7-0.83,3.48-0.77,5.27l5.58-1.29c0.28-0.04,0.54-0.15,0.77-0.31C164.53,155.16,164.69,154.74,164.65,154.32z"/>
	<path class="st2" d="M149.72,147.5c0.16,0.08,0.31,0.19,0.45,0.3c0.43,0.28,0.82,0.62,1.17,1c1.29,1.43,2.22,3.14,2.73,5
		c0.78,2.73,1.12,5.56,1,8.4c-0.05,3.48-0.79,6.91-2.18,10.1c-2.92,6.81-7.43,11.89-10.66,15.4c-1.64,1.76-3,3.13-4,4.07l-1.11,1.07
		c-0.12,0.13-0.26,0.25-0.41,0.35c0,0,0.1-0.16,0.34-0.42s0.62-0.68,1-1.14c0.91-1,2.24-2.4,3.84-4.18
		c3.15-3.57,7.57-8.64,10.45-15.35c1.37-3.13,2.11-6.5,2.18-9.92c0.15-2.79-0.14-5.58-0.86-8.28c-0.46-1.83-1.32-3.54-2.52-5
		c-0.33-0.39-0.69-0.75-1.08-1.08C149.84,147.67,149.71,147.5,149.72,147.5z"/>
	<path class="st2" d="M172.14,162.72c0,0.1-1.12-0.36-3-0.63c-1.08-0.14-2.16-0.14-3.24,0c-1.31,0.21-2.59,0.6-3.79,1.16
		c-2.17,1.1-4.19,2.48-6,4.1c-0.74,0.71-1.52,1.38-2.34,2c0.61-0.82,1.31-1.57,2.09-2.24c1.79-1.73,3.83-3.18,6.05-4.29
		c1.25-0.59,2.58-0.98,3.95-1.17c1.12-0.12,2.25-0.09,3.36,0.11c0.74,0.13,1.47,0.34,2.17,0.63
		C171.66,162.46,171.91,162.57,172.14,162.72z"/>
	<path class="st2" d="M155.02,162.3c0.66-3.07,2.56-5.72,5.25-7.34c0.09,0.13-1.52,1.4-3,3.43S155.17,162.36,155.02,162.3z"/>
	<path class="st2" d="M168.1,156.72c-0.05,0-0.07-0.22-0.25-0.55c-0.28-0.46-0.73-0.79-1.25-0.93c-1.8-0.39-3.66-0.37-5.45,0.07
		c-0.38,0.06-0.76,0.12-1.12,0.15h-0.34l0.06-0.33c0.32-1.85,0-3.6-0.81-4.45c-0.3-0.35-0.69-0.61-1.12-0.76
		c-0.3-0.12-0.49-0.16-0.48-0.2s0.19,0,0.54,0c0.5,0.1,0.96,0.35,1.31,0.71c1,0.9,1.39,2.82,1.07,4.76l-0.28-0.3l1.09-0.15
		c1.86-0.46,3.81-0.43,5.66,0.09c0.58,0.2,1.05,0.63,1.3,1.19C168.17,156.5,168.12,156.72,168.1,156.72z"/>
	<g class="st3">
		<path d="M158.05,168.98c1-5.65,0-12.1-4.38-15.82c1.73,5.55,1.61,11.52-0.32,17c-1.99,5.56-5.08,10.66-9.09,15l-7.7,8.24
			c4.68-2.76,9.04-6.02,13-9.73C153.7,179.66,157.04,174.64,158.05,168.98z"/>
	</g>
	<g class="st3">
		<path d="M159.99,151.68c0.59,0.6,0.94,1.38,1,2.22c0.64-0.15,1.29-0.18,1.94-0.09c0.65,0.1,1.25,0.39,1.72,0.84
			c-1.56-0.13-3.12,0.03-4.62,0.48c0.21-1.14,0.21-2.31,0-3.45"/>
	</g>
	<path class="st2" d="M136.29,193.43c0,0-0.14-0.08-0.39-0.27c-0.35-0.28-0.69-0.59-1-0.91c-1.2-1.19-2.2-2.57-2.95-4.09
		c-1.11-2.27-1.68-4.76-1.68-7.28c0.03-3.09,0.8-6.12,2.25-8.85c1.48-2.68,3.28-5.17,5.35-7.42c1.86-2.11,3.59-3.94,4.95-5.55
		c1.09-1.27,2.11-2.61,3.05-4c0.31-0.52,0.64-1.03,1-1.52c-0.04,0.15-0.11,0.3-0.19,0.44c-0.14,0.28-0.37,0.68-0.67,1.19
		c-0.88,1.43-1.86,2.8-2.93,4.09c-1.34,1.65-3.05,3.51-4.88,5.62c-2.02,2.24-3.78,4.71-5.25,7.35c-1.41,2.66-2.17,5.61-2.23,8.62
		c-0.06,4.15,1.48,8.17,4.3,11.22C135.82,192.98,136.33,193.39,136.29,193.43z"/>
	<path class="st2" d="M175.35,178.3c-0.55,0.06-1.11,0.08-1.67,0.06c-1.07,0-2.62,0.07-4.53,0.25c-4.97,0.39-9.84,1.67-14.36,3.78
		c-4.45,2.29-8.75,4.85-12.88,7.66l-3.8,2.51c-0.45,0.33-0.93,0.62-1.43,0.87c0.41-0.37,0.86-0.7,1.32-1
		c0.86-0.64,2.12-1.56,3.7-2.66c4.09-2.91,8.39-5.53,12.86-7.82c4.57-2.15,9.52-3.39,14.56-3.68c1.52-0.11,3.04-0.13,4.56-0.08
		c0.54,0,1,0.05,1.24,0.07C175.06,178.25,175.21,178.26,175.35,178.3z"/>
	<path class="st0" d="M105.52,202c2.33-17.88,11-33.4,22.75-47.08c11.85-13.76,27.44-23.79,44.87-28.87
		c-5.35,22.29-19.51,41.47-39.25,53.13c-5.37,3.12-11.08,5.65-16.25,9.08S107.75,196.26,105.52,202"/>
	<path class="st0" d="M70.42,145.14c0.31,8.32,3.64,15.82,8.46,22.61c4.87,6.82,11.61,12.08,19.4,15.16
		c-1.51-10.48-7.21-19.89-15.79-26.08c-2.33-1.66-4.85-3.07-7.08-4.86C73.08,150.27,71.33,147.88,70.42,145.14"/>
	<path class="st0" d="M110.18,242.22c1.88-9.15,6.94-16.84,13.53-23.47c6.64-6.67,15.06-11.27,24.26-13.25
		c-3.59,11.33-11.63,20.71-22.28,26c-2.88,1.41-5.93,2.5-8.73,4.08C114.07,237.04,111.7,239.36,110.18,242.22"/>
	<path class="st0" d="M112.05,261.92c2.37-16.49-1.82-31.87-9.86-40.74s-19-14.47-29.74-19.77s-21.76-10.67-30.14-19.22
		c5.73,21.1,19.55,39.1,38.45,50.1c6.18,3.55,12.86,6.32,18.51,10.68C105.33,247.87,109.78,254.47,112.05,261.92"/>
	<path class="st0" d="M114.42,392.42c0,0,0-0.23,0-0.69s0-1.16,0.08-2.05c0.05-1.8,0.24-4.44,0.29-7.86c0.23-6.82,0.29-16.7,0-28.91
		s-0.87-26.73-1.61-42.86s-1.57-33.87-1.51-52.52c0-4.66,0.07-9.26-0.12-13.78c-0.19-4.46-0.62-8.9-1.28-13.31
		c-1.37-8.32-3.45-16.52-6.2-24.49c-1.24-3.84-2.54-7.55-3.62-11.24c-1.04-3.57-1.86-7.2-2.45-10.87
		c-1.01-6.6-1.52-13.26-1.54-19.93c-0.09-9.66,0.81-19.3,2.68-28.78c0.18-0.83,0.34-1.62,0.49-2.37l0.51-2.06
		c0.31-1.28,0.59-2.35,0.86-3.21l0.6-2c0.13-0.44,0.21-0.66,0.21-0.66s0,0.23-0.16,0.68l-0.55,2c-0.25,0.86-0.52,1.94-0.81,3.22
		l-0.48,2.06c-0.15,0.75-0.3,1.54-0.47,2.37c-1.79,9.47-2.63,19.1-2.51,28.74c0.04,6.65,0.57,13.29,1.6,19.86
		c0.59,3.65,1.42,7.26,2.46,10.81c1.08,3.66,2.39,7.38,3.63,11.22c2.78,8,4.87,16.21,6.26,24.56c0.66,4.43,1.09,8.89,1.29,13.36
		c0.19,4.55,0.13,9.16,0.12,13.82c-0.06,18.62,0.79,36.36,1.47,52.49s1.3,30.66,1.5,42.87s0.09,22.1-0.2,28.93
		c-0.09,3.42-0.31,6.06-0.4,7.86c0,0.88-0.1,1.56-0.13,2S114.42,392.42,114.42,392.42z"/>
	<path class="st1" d="M111.75,86.72c-3.13-9.81-11.4-18.31-21.59-19.83c2.55,7.44,1.99,15.59-1.54,22.61
		c-2.88,5.63-7.59,10.3-9.68,16.27c-2.43,7-0.92,14.8,2.54,21.3S92,139.5,98.15,143.5c1.42-3.53,3.03-6.98,4.83-10.34
		c2.49-5.27,4.6-10.16,6.86-16.18C113.47,107.34,114.88,96.5,111.75,86.72z"/>
	<path class="st1" d="M143.49,81.68c-7.33,0-16.71,1.92-23.16,5.46s-12,9.27-13.81,16.41c-1.53,6.14-0.15,12.62-0.84,18.91
		c-0.85,7.72-3.56,14.72-9.72,19.45c5.8,5.94,19.54,2,27.54-4.44s12.75-16.29,15-26.34s2.29-18.23,5-29.45"/>
	<path class="st1" d="M128.32,71.6c-0.77-0.64-1.78-0.9-2.76-0.69c-3.26,0.27-6.42,1.23-9.28,2.8c-0.4-1.95-1.26-3.78-2.51-5.33
		c-1.38-1.44-3.8-2.07-5.38-0.86c-0.76,0.69-1.32,1.58-1.62,2.57c-1.4,3.62-2.23,7.44-2.45,11.32l11.33,16.79
		c4.89-0.8,8.74-4.87,10.66-9.44s2.24-9.63,2.54-14.58C129.01,73.28,128.82,72.36,128.32,71.6z"/>
	<path class="st1" d="M122.57,70.5c-0.79-2.48-3.44-3.84-5.92-3.05c-0.9,0.29-1.7,0.84-2.28,1.59l-2,0.45
		c-0.07,2.81,0.37,5.61,1.3,8.26l7.75-4.55c0.39-0.2,0.73-0.48,1-0.83C122.75,71.8,122.8,71.11,122.57,70.5z"/>
	<path class="st2" d="M103.97,74.06c0.2,0.15,0.39,0.32,0.56,0.51c0.53,0.5,1.02,1.03,1.49,1.59c1.74,2.05,3.18,4.33,4.28,6.78
		c1.65,3.63,2.67,7.52,3,11.5c0.35,4.86-0.03,9.75-1.1,14.51c-1.02,4.75-2.46,9.41-4.29,13.91c-1.64,4.16-3.35,7.82-4.83,10.86
		s-2.75,5.46-3.63,7.13l-1,1.91c-0.11,0.23-0.24,0.45-0.39,0.65c0.08-0.24,0.18-0.47,0.3-0.7c0.24-0.49,0.55-1.14,0.95-2
		c0.82-1.7,2-4.15,3.48-7.2s3.1-6.72,4.72-10.87c1.79-4.49,3.2-9.12,4.22-13.85c1.03-4.69,1.39-9.5,1.07-14.29
		c-0.3-3.93-1.26-7.78-2.83-11.39c-1.07-2.44-2.45-4.72-4.11-6.8c-0.58-0.74-1.07-1.28-1.41-1.65
		C104.27,74.47,104.11,74.27,103.97,74.06z"/>
	<path class="st2" d="M143.59,81.4c0,0.11-2.05-0.1-5.32,0.26c-0.89,0.09-1.78,0.24-2.66,0.43c-0.95,0.16-1.94,0.45-3,0.73
		c-4.52,1.36-8.71,3.66-12.28,6.74c-0.8,0.73-1.58,1.41-2.23,2.13c-0.63,0.63-1.22,1.3-1.78,2c-2.07,2.56-3,4.4-3.09,4.34
		c0.17-0.45,0.38-0.88,0.64-1.29c0.26-0.5,0.55-0.99,0.87-1.45c0.39-0.63,0.82-1.25,1.29-1.83c0.54-0.73,1.13-1.42,1.76-2.08
		c0.7-0.77,1.44-1.5,2.22-2.19c3.6-3.18,7.86-5.51,12.47-6.84c1.07-0.27,2.07-0.55,3-0.7c0.89-0.17,1.79-0.29,2.7-0.36
		c0.74-0.08,1.49-0.11,2.24-0.11c0.56-0.04,1.13-0.04,1.69,0C142.61,81.2,143.11,81.28,143.59,81.4z"/>
	<path class="st2" d="M111.83,86.94c-0.11-0.7-0.11-1.42,0-2.12c0.28-3.43,1.37-6.75,3.2-9.67c0.34-0.63,0.78-1.19,1.3-1.68
		c-1.16,2.08-2.16,4.25-3,6.48C112.66,82.24,112.16,84.58,111.83,86.94z"/>
	<path class="st2" d="M128.87,72.5c-0.05,0-0.17-0.31-0.59-0.76c-0.64-0.58-1.48-0.89-2.35-0.87c-1.3,0.02-2.59,0.25-3.81,0.68
		c-1.51,0.54-2.98,1.19-4.4,1.94c-0.55,0.27-1.08,0.52-1.6,0.75l-0.32,0.13v-0.33c-0.39-3-1.71-5.47-3.38-6.36
		c-0.63-0.38-1.35-0.59-2.09-0.59c-0.52,0-0.81,0-0.82,0c0.26-0.11,0.54-0.17,0.82-0.17c0.78-0.06,1.56,0.1,2.25,0.48
		c1.03,0.57,1.87,1.44,2.41,2.49c0.69,1.27,1.13,2.66,1.32,4.09l-0.36-0.2c0.51-0.22,1-0.47,1.58-0.73c3-1.6,6.12-2.7,8.46-2.53
		c0.94,0.01,1.84,0.42,2.48,1.11c0.16,0.19,0.28,0.41,0.37,0.64C128.87,72.37,128.89,72.5,128.87,72.5z"/>
	<g class="st3">
		<path d="M119.49,95.55c-1.13-9-6.54-17.65-14.84-21.19c5.44,7.25,8.37,16.08,8.35,25.14c-0.19,9-2.89,18.55-6.66,26.72
			l-8.35,17.17c5.96-6.73,11.19-14.07,15.62-21.89C117.94,113.61,120.62,104.5,119.49,95.55z"/>
	</g>
	<g class="st3">
		<path d="M114.34,68.67c1.15,0.62,2.04,1.64,2.51,2.87c0.89-0.51,1.86-0.85,2.87-1c1.02-0.16,2.07,0,3,0.46
			c-2.4,0.52-4.67,1.5-6.71,2.87c-0.22-1.81-0.78-3.56-1.65-5.17"/>
	</g>
	<path class="st1" d="M38.91,116.38c-7-4.33-16.35-5.21-23.31-0.88l0,0c5.37,3.19,9.24,8.42,10.72,14.49
		c1.17,4.9,0.72,10.16,2.53,14.85c2.11,5.46,7.08,9.44,12.52,11.6s12.8,2.11,18.58,1.36l0,0c-0.96-2.87-1.76-5.79-2.41-8.75
		c-1.2-4.48-2.45-8.53-4.18-13.35C50.58,127.99,45.87,120.71,38.91,116.38z"/>
	<path class="st1" d="M55.54,96.96c-4.46,3.76-9.13,9.78-11.22,15.25s-2.5,11.82,0.1,17.07c2.24,4.5,6.42,7.72,9.25,11.89
		c3.46,5.11,5.43,10.76,4.14,16.79l0,0c6.57,0.61,12.89-8.83,14.39-16.89s-0.67-16.44-4.49-23.7S59.71,105.15,55.54,96.96"/>
	<path class="st1" d="M41.15,98.67c-0.78,0.02-1.52,0.39-2,1c-1.83,1.84-3.25,4.05-4.17,6.48l0,0c-1.49-1-3.06-2-4.89-1.95
		c-0.9,0.01-1.75,0.37-2.39,1c-1.12,1.16-0.77,2.47-0.36,3.66c1.02,2.92,2.49,5.66,4.36,8.13l0,0l15.53,4.33l0,0
		c2.55-3,2.78-7.46,1.58-11.22s-3.6-7-6-10.14C42.45,99.33,41.85,98.87,41.15,98.67z"/>
	<path class="st1" d="M37.09,100.95c-1.77-1.09-4.08-0.54-5.17,1.23c-0.39,0.64-0.59,1.38-0.56,2.12l-1,1.29l0,0
		c1.41,1.74,3.12,3.21,5.05,4.34l0,0l2.36-6.75c0.14-0.31,0.21-0.66,0.2-1C37.87,101.66,37.55,101.21,37.09,100.95z"/>
	<path class="st2" d="M27.66,112.72c0.2-0.02,0.41-0.02,0.61,0c0.58,0.03,1.16,0.1,1.73,0.19c2.11,0.34,4.16,0.97,6.1,1.88
		c2.88,1.36,5.5,3.2,7.75,5.44c2.72,2.77,5.02,5.93,6.83,9.37c1.83,3.41,3.36,6.98,4.57,10.65c1.15,3.37,2,6.47,2.66,9.08
		s1.14,4.73,1.46,6.2c0.15,0.69,0.26,1.25,0.36,1.69c0.05,0.2,0.08,0.4,0.08,0.6c-0.08-0.18-0.14-0.37-0.19-0.57
		c-0.11-0.44-0.26-1-0.44-1.68c-0.39-1.45-0.91-3.56-1.62-6.15s-1.6-5.66-2.76-9c-1.23-3.64-2.76-7.17-4.58-10.56
		c-1.78-3.4-4.04-6.52-6.71-9.28c-2.2-2.23-4.76-4.07-7.57-5.44c-1.91-0.92-3.92-1.59-6-2C28.49,112.82,27.66,112.79,27.66,112.72z"
		/>
	<path class="st2" d="M55.42,96.74c0.06,0.08-1.28,1-3.06,2.93c-1.04,1.12-1.98,2.33-2.81,3.61c-2.05,3.15-3.42,6.69-4,10.4
		c-0.23,1.51-0.34,3.04-0.31,4.57c0.06,2.61,0.44,4.21,0.33,4.23c-0.14-0.36-0.24-0.73-0.3-1.11c-0.11-0.44-0.19-0.88-0.23-1.33
		c-0.09-0.59-0.14-1.18-0.17-1.78c-0.08-1.55-0.01-3.11,0.2-4.65c0.29-1.88,0.77-3.73,1.43-5.52c0.69-1.78,1.57-3.48,2.61-5.07
		c0.86-1.29,1.84-2.5,2.94-3.6c0.43-0.43,0.89-0.84,1.37-1.22c0.33-0.31,0.69-0.59,1.06-0.84C54.77,97.12,55.08,96.91,55.42,96.74z"
		/>
	<path class="st2" d="M39.07,116.5c-2.72-2.8-4.24-6.55-4.24-10.46c0.43,1.85,0.96,3.67,1.59,5.46
		C37.21,113.21,38.1,114.88,39.07,116.5z"/>
	<path class="st2" d="M41.93,98.91c0,0.05-0.27-0.08-0.75-0.13c-0.68-0.01-1.34,0.24-1.85,0.69c-0.77,0.68-1.43,1.48-1.94,2.38
		c-0.63,1.11-1.19,2.26-1.66,3.44l-0.42,0.93l-0.11,0.23l-0.05,0.11l0,0l-0.4,0.08l0,0l0,0H34.7l-0.36-0.31
		c-0.47-0.38-0.98-0.71-1.51-1c-0.88-0.52-1.88-0.79-2.9-0.77c-0.68,0.03-1.34,0.27-1.89,0.67c-0.4,0.29-0.57,0.51-0.61,0.48
		s0.1-0.28,0.48-0.63c0.55-0.51,1.25-0.82,2-0.88c1.1-0.08,2.2,0.17,3.16,0.7c0.56,0.28,1.1,0.62,1.6,1l0.38,0.32h0.05l0,0l0,0
		l-0.4,0.08l0,0l0.06-0.11l0.1-0.22l0.41-0.92c1-2.53,2.33-4.8,3.86-5.91c0.59-0.48,1.34-0.69,2.09-0.59
		C41.49,98.6,41.73,98.72,41.93,98.91z"/>
	<g class="st3">
		<path d="M48.15,117.74c-5.3-4.85-13.06-7.32-19.92-5.18l0,0c7.03,1.59,13.35,5.43,18,10.93c4.52,5.83,7.84,12.5,9.74,19.63
			l3.8,14.71l0,0c0.15-7.15-0.44-14.3-1.78-21.33C56.53,129.5,53.42,122.59,48.15,117.74z"/>
	</g>
	<g class="st3">
		<path d="M31.17,104.11c1.02-0.22,2.09-0.06,3,0.45l0,0c0.28-0.76,0.71-1.46,1.25-2.06c0.52-0.61,1.22-1.05,2-1.26
			c-1.18,1.56-2.06,3.32-2.59,5.2l0,0c-1.07-0.98-2.31-1.76-3.66-2.28"/>
	</g>
	<path class="st0" d="M93.54,394.42c0,0,0-0.22,0.08-0.65l0.3-1.89c0.28-1.69,0.69-4.14,1.21-7.29l4.43-26.79
		c1.84-11.32,4-24.8,6-39.82c1-7.51,2.05-15.4,2.92-23.6c0.96-8.45,1.43-16.95,1.4-25.45c-0.01-8.5-0.96-16.98-2.84-25.27
		c-1.81-7.71-4.33-15.24-7.52-22.49c-6.09-13.88-13.33-25.52-19.56-35.11s-11.67-17.15-15.46-22.32l-4.4-5.93l-1.15-1.54l-0.37-0.53
		c0,0,0.15,0.16,0.42,0.5l1.19,1.51c1,1.33,2.55,3.3,4.47,5.87c3.84,5.14,9.29,12.66,15.6,22.23s13.57,21.22,19.7,35.13
		c3.22,7.26,5.76,14.79,7.59,22.52c1.9,8.34,2.86,16.87,2.87,25.43c0.02,8.52-0.46,17.04-1.42,25.51c-0.88,8.2-1.93,16.09-3,23.6
		c-2.08,15-4.24,28.51-6.12,39.82s-3.49,20.45-4.6,26.76c-0.57,3.15-1,5.59-1.31,7.27c-0.15,0.82-0.26,1.45-0.35,1.89
		S93.54,394.42,93.54,394.42z"/>
	<path class="st0" d="M112.05,236.66c-0.06-0.12-0.11-0.24-0.14-0.37c-0.1-0.27-0.22-0.63-0.38-1.09c-0.34-1-0.81-2.39-1.42-4.19
		c-1.24-3.64-3.12-8.88-5.58-15.3s-5.53-14-9-22.44s-7.18-17.7-10.79-27.57c-3.41-9.27-6.35-18.7-8.79-28.27
		c-1.98-7.82-3.43-15.77-4.33-23.79c-0.6-5.4-0.88-10.84-0.82-16.27c0-1.93,0.12-3.42,0.15-4.43c0-0.49,0-0.87,0.07-1.15
		c-0.01-0.13-0.01-0.26,0-0.39c0.01,0.13,0.01,0.26,0,0.39c0,0.28,0,0.67,0,1.15c0,1-0.1,2.5-0.05,4.43
		c0.02,5.42,0.35,10.84,1,16.23c0.95,7.99,2.43,15.91,4.43,23.71c2.48,9.54,5.45,18.95,8.88,28.19c3.6,9.86,7.35,19.13,10.74,27.57
		s6.44,16,8.85,22.49s4.25,11.7,5.43,15.36c0.61,1.83,1,3.26,1.33,4.23l0.33,1.1C112.01,236.38,112.04,236.52,112.05,236.66z"/>
	<path class="st1" d="M68.71,97.35C77.6,90.8,82.63,85,85.98,69.82C88.36,59.04,89.22,48,89.6,36.96C76,50.07,64.6,78.9,68.71,97.35
		"/>
	<path class="st1" d="M67.28,97.27c-8.84,1.51-23.38-2.39-31.84-9.17c-8.51-6.86-14.61-16.25-17.41-26.82
		c11.39-2.22,23.17,0.73,32.17,8.06C59.01,76.63,67.4,85.84,67.28,97.27"/>
	<path class="st1" d="M68.78,85.99c0.09-9.29-3.15-18.33-7.41-26.59c-3.27-6.35-7.27-12.49-12.83-17s-12.91-7.13-19.94-5.83
		c5,7.29,6.44,16.36,7.66,25.1S38.7,79.48,43.33,87s15.44,12.56,24,10.23l-0.24-0.1C68.19,93.52,68.76,89.77,68.78,85.99z"/>
	<path class="st1" d="M68.01,26.28c-6,3.64-8.78,7.36-12.27,13.47s-3.29,15-1.16,21.7c1.83,5.77,6.2,10.37,8.79,15.85
		c3.17,6.71,2.53,13,3.91,20c9.34-4.13,9.64-6.17,13.81-15.09c4.32-9.23,2-24-2.7-32.61C71.82,37.5,67.56,35.69,68.01,26.28"/>
	<path class="st1" d="M56.34,24.5c-0.95-0.13-1.9,0.17-2.6,0.82c-2.52,1.86-4.61,4.22-6.16,6.94c-1.58-1.45-3.26-3-5.44-3.23
		c-1.06-0.14-2.13,0.13-3,0.75c-1.54,1.17-1.37,2.8-1.1,4.29c0.67,3.64,1.9,7.16,3.65,10.43l17.65,8c3.59-3.1,4.68-8.35,4-13
		s-3-9-5.24-13.15C57.79,25.52,57.15,24.86,56.34,24.5z"/>
	<path class="st1" d="M51.09,26.44c-1.9-1.62-4.75-1.4-6.37,0.49c-0.59,0.68-0.95,1.53-1.06,2.43l-1.38,1.36
		c1.36,2.32,3.12,4.39,5.2,6.09l4.06-7.58c0.22-0.36,0.37-0.76,0.42-1.18C51.92,27.41,51.61,26.82,51.09,26.44z"/>
	<path class="st2" d="M28.6,36.61c1-0.32,2.05-0.5,3.1-0.51c2.88,0.01,5.72,0.66,8.32,1.91c3.83,1.84,7.34,4.27,10.4,7.21
		c3.88,3.49,7.02,7.73,9.24,12.45c2.23,4.7,3.89,9.64,4.95,14.73c0.89,4.14,1.56,8.33,2,12.54c0.38,3.59,0.58,6.5,0.72,8.52
		c0.06,1,0.1,1.74,0.13,2.32c0.03,0.27,0.03,0.54,0,0.81c-0.05-0.26-0.09-0.53-0.11-0.8c-0.06-0.58-0.14-1.35-0.23-2.32
		c-0.2-2-0.46-4.91-0.89-8.49s-1-7.83-2-12.47c-1.1-5.05-2.78-9.95-5-14.61c-2.19-4.67-5.28-8.86-9.1-12.33
		c-3.02-2.93-6.49-5.37-10.27-7.22c-2.54-1.25-5.33-1.93-8.16-2C30.66,36.37,29.63,36.45,28.6,36.61z"/>
	<path class="st2" d="M68.01,26.28c-0.31,0.27-0.64,0.5-1,0.7c-0.95,0.59-1.85,1.26-2.69,2c-1.24,1.08-2.33,2.31-3.24,3.68
		c-1.09,1.69-1.91,3.54-2.46,5.47c-0.56,1.96-0.92,3.97-1.07,6c-0.19,1.86-0.2,3.54-0.23,5s0,2.45,0,3.35
		c0.05,0.41,0.05,0.83,0,1.24c-0.09-0.4-0.15-0.82-0.16-1.23c-0.08-0.79-0.15-1.94-0.2-3.36c-0.04-1.67,0-3.34,0.12-5
		c0.13-2.05,0.49-4.08,1.05-6.05c0.56-1.99,1.42-3.88,2.56-5.6c0.95-1.39,2.1-2.63,3.4-3.7c0.88-0.71,1.83-1.33,2.83-1.86
		C67.25,26.66,67.62,26.44,68.01,26.28z"/>
	<path class="st2" d="M50.58,45.25c-0.46-0.51-0.83-1.08-1.1-1.71c-0.75-1.46-1.32-3-1.69-4.6c-0.38-1.6-0.56-3.24-0.55-4.88
		c-0.03-0.67,0.05-1.35,0.23-2c0.12,2.28,0.39,4.54,0.82,6.78C48.9,41.03,49.67,43.17,50.58,45.25z"/>
	<path class="st2" d="M57.22,24.91c0,0.05-0.3-0.17-0.86-0.32c-0.81-0.15-1.66,0.02-2.35,0.47c-1.05,0.65-1.98,1.48-2.76,2.44
		c-0.97,1.2-1.84,2.46-2.62,3.79c-0.31,0.48-0.62,1-0.93,1.4l-0.2,0.28l-0.21-0.26c-1.79-2.21-4.13-3.59-5.93-3.49
		c-0.7,0.01-1.39,0.2-2,0.56c-0.43,0.25-0.65,0.43-0.68,0.4c0.15-0.23,0.35-0.42,0.58-0.56c0.61-0.44,1.33-0.7,2.08-0.74
		c1.13-0.05,2.25,0.24,3.22,0.82c1.2,0.7,2.26,1.61,3.13,2.68h-0.41c0.3-0.44,0.6-0.91,0.91-1.39c1.68-2.83,3.65-5.27,5.64-6.31
		c0.79-0.45,1.73-0.55,2.59-0.28c0.23,0.08,0.44,0.19,0.63,0.34C57.17,24.84,57.23,24.9,57.22,24.91z"/>
	<g class="st3">
		<path d="M61.14,48.43c-5.41-6.73-13.7-12-22.24-10.7c8,3.26,14.57,9.76,18.94,17.19s6.94,16.57,8,25.13l1.7,16.87
			c1.36-8.53,2.3-15.73,1.87-24.36S66.55,55.17,61.14,48.43z"/>
	</g>
	<g class="st3">
		<path d="M43.48,29.1c1.25-0.07,2.49,0.32,3.48,1.09c0.46-0.87,1.08-1.64,1.82-2.28c0.74-0.64,1.67-1.03,2.64-1.12
			c-1.68,1.63-3.04,3.56-4,5.7c-1.09-1.36-2.42-2.51-3.93-3.39"/>
	</g>
	<path class="st2" d="M67.28,97.27c-0.23,0.08-0.46,0.12-0.7,0.14c-0.66,0.12-1.33,0.2-2,0.23c-2.53,0.17-5.07-0.08-7.52-0.74
		c-3.64-1-7.01-2.81-9.84-5.31c-3.47-3.07-6.14-6.94-7.8-11.27c-1.56-4.32-2.6-8.81-3.11-13.37c-0.55-4.19-0.91-8-1.4-11.1
		c-0.35-2.48-0.85-4.93-1.49-7.35c-0.24-0.85-0.43-1.52-0.57-2c-0.08-0.23-0.14-0.46-0.19-0.69c0.12,0.2,0.22,0.42,0.29,0.65
		c0.17,0.44,0.4,1.1,0.67,2c0.72,2.41,1.28,4.87,1.67,7.36c0.54,3.15,1,6.93,1.52,11.09c0.53,4.52,1.57,8.97,3.12,13.25
		c1.61,4.25,4.21,8.05,7.58,11.1c2.77,2.47,6.06,4.29,9.63,5.32c2.41,0.67,4.91,0.98,7.41,0.89c0.89,0,1.57-0.1,2-0.13
		C66.79,97.29,67.03,97.27,67.28,97.27z"/>
	<path class="st2" d="M88.83,38.07c-0.12,0.18-0.26,0.35-0.41,0.51l-1.21,1.41c-1.06,1.22-2.55,3-4.25,5.35
		c-4.52,6-7.91,12.78-10,20c-1.82,7.3-3.17,14.71-4.05,22.18c-0.36,2.82-0.66,5.13-0.87,6.79c-0.11,0.76-0.19,1.37-0.25,1.85
		c-0.02,0.22-0.06,0.43-0.13,0.64c-0.02-0.22-0.02-0.43,0-0.65c0-0.48,0.09-1.1,0.16-1.86c0.14-1.61,0.38-3.94,0.7-6.81
		c0.78-7.5,2.08-14.93,3.9-22.25c2.1-7.29,5.56-14.11,10.2-20.11c1.75-2.31,3.29-4.08,4.39-5.27c0.55-0.6,1-1,1.3-1.34
		S88.81,38.05,88.83,38.07z"/>
	<path class="st1" d="M159.96,112.5c5.09-5.13,8.19-11.92,10.31-18.84c1.62-5.31,2.72-10.89,2-16.41s-3.32-11-7.94-14.06
		c-1.18,6.76-5.29,12.6-9.35,18.14s-8.31,11.23-9.81,17.93s1.78,15.38,7.79,18.71l-0.08-0.19
		C155.48,116.37,157.87,114.59,159.96,112.5z"/>
	<path class="st1" d="M191.94,78.81c-5.32-1.23-8.88-0.66-14.15,0.85s-10,6.56-12.42,11.45c-2.11,4.21-2.17,9.14-3.7,13.6
		c-1.88,5.46-5.66,8.63-8.66,13.25c7.44,2.76,8.71,1.79,15.88-0.92c7.42-2.79,14.11-12.25,16.19-19.63
		C187.98,87.11,186.58,83.81,191.94,78.81"/>
	<path class="st1" d="M186.42,71.5c-0.44-0.61-1.14-0.98-1.89-1c-2.41-0.34-4.86-0.16-7.19,0.52c-0.1-1.67-0.22-3.42-1.29-4.76
		c-0.51-0.66-1.26-1.1-2.09-1.22c-1.49-0.19-2.28,0.81-2.94,1.79c-1.6,2.41-2.83,5.04-3.63,7.82l5.49,14
		c3.68,0.22,7.14-2.11,9.28-5.11s3.2-6.63,4.22-10.17C186.63,72.77,186.64,72.11,186.42,71.5z"/>
	<path class="st1" d="M182.42,69.72c-0.17-1.93-1.86-3.35-3.79-3.18c-0.7,0.06-1.37,0.33-1.92,0.78h-1.51
		c-0.51,2.03-0.65,4.13-0.41,6.21l6.38-2c0.32-0.07,0.62-0.22,0.87-0.43C182.37,70.72,182.51,70.21,182.42,69.72z"/>
	<path class="st2" d="M164.42,63.18c0.2,0.08,0.38,0.18,0.55,0.31c0.53,0.3,1.02,0.67,1.45,1.09c1.63,1.55,2.87,3.45,3.63,5.57
		c1.16,3.11,1.81,6.38,1.92,9.69c0.27,4.07-0.27,8.15-1.6,12c-1.31,3.83-3.08,7.49-5.25,10.9c-1.77,2.76-3.68,5.43-5.72,8
		c-1.75,2.2-3.22,3.93-4.24,5.12l-1.19,1.36c-0.13,0.17-0.28,0.32-0.45,0.45c0.11-0.18,0.23-0.36,0.37-0.52l1.11-1.42
		c1-1.23,2.4-3,4.1-5.22c3.35-4.45,8-10.77,10.77-18.88c1.29-3.78,1.82-7.78,1.55-11.77c-0.09-3.27-0.69-6.5-1.78-9.58
		c-0.71-2.08-1.88-3.98-3.43-5.55c-0.41-0.43-0.87-0.82-1.37-1.15C164.69,63.46,164.55,63.32,164.42,63.18z"/>
	<path class="st2" d="M191.94,78.81c0,0.11-1.34-0.34-3.52-0.49c-1.27-0.07-2.55,0.03-3.79,0.3c-1.51,0.37-2.97,0.95-4.32,1.72
		c-2.44,1.48-4.67,3.28-6.64,5.35c-0.79,0.89-1.64,1.73-2.53,2.52c0.16-0.28,0.35-0.55,0.56-0.79c0.38-0.48,1-1.16,1.7-2
		c1.92-2.18,4.17-4.05,6.65-5.55c1.4-0.8,2.91-1.38,4.48-1.73c1.29-0.25,2.61-0.31,3.92-0.19c0.88,0.07,1.74,0.24,2.58,0.51
		C191.35,78.53,191.66,78.65,191.94,78.81z"/>
	<path class="st2" d="M171.94,79.92c0.18-1.81,0.81-3.55,1.82-5.06c0.86-1.61,2.1-2.98,3.61-4c0.11,0.12-1.67,1.74-3.17,4.26
		C173.36,76.68,172.61,78.28,171.94,79.92z"/>
	<path class="st2" d="M186.67,72.19c-0.05,0-0.09-0.25-0.33-0.63c-0.37-0.52-0.93-0.88-1.55-1c-2.14-0.3-4.32-0.1-6.37,0.59
		c-0.43,0.1-0.86,0.2-1.28,0.27l-0.34,0.07v-0.34c0.21-2.19-0.33-4.21-1.38-5.13c-0.39-0.38-0.87-0.65-1.39-0.78
		c-0.37-0.1-0.59-0.12-0.59-0.17c0.21-0.05,0.42-0.05,0.63,0c0.59,0.07,1.14,0.31,1.58,0.7c1.23,1,1.87,3.15,1.67,5.43l-0.31-0.27
		c0.41-0.08,0.83-0.18,1.26-0.28c2.47-0.66,4.91-1,6.59-0.43c0.71,0.17,1.31,0.64,1.66,1.28C186.64,71.71,186.69,71.95,186.67,72.19
		z"/>
	<g class="st3">
		<path d="M176.09,87.42c0.64-6.68-1.13-14.1-6.58-18c2.67,6.15,2.82,13.35,1.22,19.85c-1.82,6.66-4.94,12.89-9.2,18.32l-8.21,10.31
			c5.39-4,9.82-7.51,14.26-12.55S175.42,94.11,176.09,87.42z"/>
	</g>
	<g class="st3">
		<path d="M176.74,67.07c0.73,0.64,1.22,1.53,1.36,2.49c0.72-0.23,1.48-0.32,2.24-0.28c0.76,0.05,1.49,0.34,2.09,0.82
			c-1.83,0-3.64,0.33-5.34,1c0.14-1.34,0.02-2.7-0.35-4"/>
	</g>
	<path class="st2" d="M153.01,117.96c-0.17-0.08-0.33-0.19-0.48-0.3c-0.44-0.31-0.87-0.64-1.27-1c-1.51-1.28-2.79-2.79-3.8-4.49
		c-1.5-2.53-2.39-5.38-2.62-8.31c-0.26-3.6,0.36-7.21,1.8-10.52c1.47-3.26,3.33-6.32,5.53-9.14c2-2.63,3.81-4.93,5.25-6.93
		c1.15-1.58,2.21-3.21,3.17-4.91c0.68-1.21,1-1.9,1-1.88c-0.04,0.18-0.11,0.36-0.19,0.52c-0.13,0.34-0.36,0.83-0.67,1.45
		c-0.9,1.74-1.92,3.41-3.05,5c-1.4,2-3.22,4.37-5.16,7c-2.16,2.8-3.98,5.84-5.44,9.06c-1.41,3.23-2.03,6.76-1.8,10.28
		c0.33,4.87,2.53,9.43,6.14,12.71C152.42,117.5,153.04,117.91,153.01,117.96z"/>
	<path class="st1" d="M115.68,21.95c-5.65-5.16-14.13-7.57-21.25-4.77c4.39,3.84,7.05,9.29,7.38,15.11c0.24,4.7-1.07,9.45-0.2,14.07
		c1,5.37,4.89,9.86,9.52,12.76s11.38,4.12,16.82,4.41c-0.4-2.8-0.64-5.62-0.72-8.44c-0.35-4.31-0.8-8.24-1.58-13
		C124.42,34.58,121.32,27.1,115.68,21.95z"/>
	<path class="st1" d="M134.24,6.94c-5.17,2.98-9.59,7.13-12.89,12.1c-2.84,4.66-4.31,10.42-2.81,15.67
		c1.29,4.52,4.58,8.19,6.47,12.49c2.31,5.28,3.15,10.8,0.94,16.12c5.93,1.68,13.34-5.92,16.09-13.06s2.17-15.21-0.1-22.51
		S136.66,15.16,134.24,6.94"/>
	<path class="st1" d="M120.74,6.07c-0.72-0.12-1.45,0.1-2,0.58c-1.99,1.39-3.67,3.17-4.94,5.24c-0.98-1.11-2.21-1.97-3.59-2.5
		c-1.45-0.51-3.05,0.1-3.79,1.44c-0.24,0.73-0.27,1.51-0.09,2.25c0.44,2.85,1.33,5.62,2.62,8.2l13.47,6.61
		c2.85-2.32,3.82-6.37,3.36-10s-2.12-7-3.76-10.33C121.8,6.92,121.35,6.38,120.74,6.07z"/>
	<path class="st1" d="M116.62,7.5c-1.43-1.3-3.64-1.19-4.94,0.24c-0.47,0.52-0.78,1.17-0.88,1.86l-1.1,1c1,1.83,2.31,3.47,3.89,4.83
		c1.11-1.93,2.22-3.86,3.32-5.79c0.19-0.27,0.31-0.58,0.35-0.9C117.24,8.25,117.01,7.8,116.62,7.5z"/>
	<path class="st2" d="M105.98,16.68c0.19,0.01,0.37,0.04,0.55,0.1c0.53,0.12,1.04,0.28,1.55,0.47c1.9,0.66,3.7,1.59,5.34,2.76
		c2.41,1.73,4.51,3.86,6.2,6.3c2.03,3.01,3.6,6.3,4.67,9.77c1.1,3.44,1.9,6.97,2.39,10.55c0.48,3.3,0.73,6.28,0.9,8.79
		s0.23,4.53,0.28,5.94c0,0.65,0,1.19,0,1.61c0.02,0.19,0.02,0.38,0,0.57c-0.05-0.18-0.08-0.37-0.08-0.56c0-0.43-0.08-1-0.13-1.61
		c-0.11-1.47-0.26-3.48-0.45-5.93s-0.5-5.46-1-8.73c-0.51-3.55-1.32-7.05-2.41-10.47c-1.06-3.42-2.6-6.67-4.58-9.65
		c-1.63-2.42-3.66-4.54-6-6.28c-1.58-1.18-3.31-2.14-5.14-2.87C106.72,16.91,105.96,16.73,105.98,16.68z"/>
	<path class="st2" d="M134.2,6.72c0.05,0.1-1.34,0.74-3.3,2.19c-1.14,0.85-2.21,1.8-3.18,2.84c-2.4,2.54-4.24,5.56-5.4,8.86
		c-0.47,1.35-0.83,2.73-1.07,4.14c-0.39,2.4-0.32,3.93-0.42,3.93c-0.08-0.35-0.11-0.71-0.1-1.07c-0.03-0.42-0.03-0.83,0-1.25
		c0.02-0.56,0.07-1.12,0.15-1.67c0.2-1.44,0.53-2.86,1-4.23c0.58-1.68,1.33-3.3,2.25-4.83c0.94-1.52,2.05-2.93,3.29-4.21
		c1.01-1.05,2.12-1.99,3.32-2.81c0.45-0.32,0.92-0.62,1.41-0.89c0.35-0.22,0.73-0.42,1.11-0.59C133.56,6.96,133.87,6.82,134.2,6.72z
		"/>
	<path class="st2" d="M115.81,22.05c-1.09-1.45-1.81-3.15-2.08-4.95c-0.43-1.76-0.43-3.61,0-5.37c0.16,0-0.05,2.41,0.55,5.27
		C114.7,18.71,115.21,20.39,115.81,22.05z"/>
	<path class="st2" d="M121.42,6.42c0,0-0.24-0.12-0.67-0.24c-0.62-0.13-1.27-0.01-1.81,0.32c-1.77,1.23-3.23,2.85-4.28,4.73
		c-0.25,0.37-0.51,0.74-0.76,1.08l-0.2,0.27l-0.21-0.27c-1.33-1.75-3.09-2.87-4.48-2.84c-0.54-0.01-1.07,0.11-1.55,0.37
		c-0.34,0.18-0.52,0.31-0.54,0.27s0.12-0.19,0.45-0.43c0.48-0.34,1.05-0.54,1.64-0.55c1.54-0.13,3.49,1,4.89,2.86h-0.41
		c0.24-0.33,0.49-0.69,0.74-1.06c1.36-2.15,2.95-4,4.55-4.77c0.62-0.33,1.34-0.39,2-0.18C121.03,6.05,121.26,6.21,121.42,6.42z"/>
	<g class="st3">
		<path d="M123.93,24.76c-4-5.35-10.75-8.94-17.4-8.14c6.19,2.65,11.35,7.25,14.69,13.1c3.16,6.12,5.07,12.8,5.61,19.67l1,14.15
			c1.34-6.54,1.99-13.2,1.94-19.88C129.62,36.96,127.97,30.11,123.93,24.76z"/>
	</g>
	<g class="st3">
		<path d="M110.66,9.37c0.97-0.03,1.93,0.29,2.68,0.91c0.37-0.66,0.87-1.24,1.46-1.72c0.6-0.48,1.33-0.76,2.09-0.81
			c-1.35,1.22-2.46,2.69-3.26,4.33c-0.82-1.09-1.84-2.01-3-2.71"/>
	</g>
	<path class="st0" d="M155.02,115.74c-0.06,0.12-0.12,0.23-0.2,0.33l-0.62,0.94c-0.56,0.81-1.33,2.05-2.47,3.53
		c-2.18,3.05-5.62,7.25-10,12.3s-9.76,10.95-15.22,17.9c-2.84,3.64-5.45,7.45-7.81,11.42l-1.76,3.17l-1.58,3.33
		c-0.55,1.11-0.93,2.31-1.4,3.47c-0.47,1.17-0.85,2.37-1.15,3.6c-1.27,4.79-1.92,9.72-1.95,14.67l-0.06,1.79v1.78
		c0,1.18,0,2.35,0.06,3.5c0.14,2.31,0.2,4.58,0.41,6.78c0.7,8.81,1.78,16.71,2.5,23.36c0.65,5.25,0.99,10.54,1,15.83
		c0,0.93,0,1.77-0.06,2.49s-0.14,1.31-0.19,1.81s-0.1,0.84-0.13,1.12c-0.01,0.13-0.03,0.25-0.06,0.37c-0.01-0.13-0.01-0.25,0-0.38
		c0-0.28,0-0.65,0.08-1.12s0.08-1.1,0.13-1.81s0-1.55,0-2.49c-0.11-5.27-0.51-10.54-1.2-15.77c-0.77-6.65-1.89-14.54-2.62-23.38
		c-0.22-2.2-0.28-4.47-0.43-6.79c0-1.16,0-2.33-0.07-3.51v-1.79l0.06-1.8c0.04-5,0.71-9.97,2-14.8c0.3-1.24,0.69-2.45,1.16-3.64
		c0.48-1.17,0.86-2.38,1.41-3.5s1.07-2.24,1.6-3.35l1.78-3.2c2.37-3.98,5-7.81,7.87-11.46c5.5-7,10.91-12.82,15.32-17.84
		s7.9-9.18,10.13-12.18c1.16-1.47,2-2.68,2.54-3.47l0.67-0.91C154.84,115.93,154.93,115.83,155.02,115.74z"/>
	<path class="st0" d="M136.29,193.43c-0.14,0.17-0.3,0.32-0.48,0.44l-1.39,1.18c-0.76,0.61-1.5,1.26-2.19,1.95l-1.33,1.25l-1.41,1.5
		c-2.29,2.47-4.38,5.12-6.26,7.92c-2.29,3.43-4.32,7.03-6.07,10.77c-1.74,3.75-3.19,7.62-4.33,11.59c-0.46,1.84-1,3.58-1.25,5.25
		c-0.16,0.83-0.32,1.63-0.47,2.41s-0.2,1.52-0.29,2.24c-0.22,1.42-0.28,2.72-0.35,3.86c0,0.57-0.07,1.1-0.1,1.6s0,0.93,0,1.34v1.85
		c0.03,0.22,0.03,0.43,0,0.65c-0.05-0.21-0.07-0.42-0.07-0.64c0-0.48-0.06-1.1-0.11-1.86c0-0.41,0-0.86-0.05-1.35s0-1,0.05-1.6
		c0.02-1.3,0.11-2.61,0.28-3.9c0.08-0.72,0.16-1.47,0.25-2.26s0.29-1.58,0.44-2.42c0.26-1.69,0.77-3.44,1.22-5.3
		c1.13-4,2.57-7.91,4.31-11.68c1.77-3.76,3.82-7.38,6.15-10.82c1.92-2.8,4.06-5.44,6.4-7.9l1.43-1.49l1.37-1.23
		c0.72-0.67,1.48-1.31,2.27-1.89l1.5-1.1C135.96,193.66,136.12,193.54,136.29,193.43z"/>
	<path class="st4" d="M131.94,286.23l16-39.16l-34.51,0.24v-0.05l-42.38-0.09l16.21,39.08c0,0-34.28,31.79-31.79,66.69
		s31.79,91,31.79,91h19.29v0.1l26.18-0.13c0,0,29-56.23,31.32-91.15S131.94,286.23,131.94,286.23z"/>
	<path class="st2" d="M131.94,286.23l0.61,0.55c0.4,0.38,1,0.94,1.74,1.7c1.5,1.53,3.7,3.83,6.37,7c3.28,3.86,6.33,7.91,9.13,12.13
		c3.81,5.65,7.02,11.69,9.59,18c3.26,7.79,4.94,16.15,4.94,24.6c-0.35,9.17-2.36,18.9-5.22,29c-3.11,10.66-6.78,21.15-11,31.43
		c-2.22,5.41-4.55,10.92-7.09,16.48s-5.17,11.22-8.05,16.9l-0.07,0.13h-0.14l-26.18,0.14h-0.25v-0.35l0.25,0.25H87.1l-0.07-0.13
		c-4.24-8.31-8.29-16.91-12.15-25.81c-3.86-8.88-7.52-18-10.75-27.45c-3.4-9.57-6.02-19.39-7.84-29.38
		c-0.89-4.89-1.27-9.85-1.13-14.82c0.28-4.88,1.13-9.7,2.53-14.38c2.79-9.04,6.93-17.61,12.26-25.42
		c4.98-7.48,10.72-14.43,17.15-20.71l-0.06,0.26l-16.18-39.09l-0.13-0.29h0.33l42.37,0.12h0.18v0.23l-0.18-0.18l34.51-0.2h0.21
		l-0.08,0.19l-11.9,28.92c-1.37,3.32-2.42,5.86-3.14,7.59c-0.35,0.85-0.62,1.5-0.81,1.94s-0.28,0.66-0.28,0.66s0.07-0.22,0.24-0.65
		l0.78-1.94c0.7-1.72,1.72-4.27,3.07-7.59c2.71-6.68,6.69-16.49,11.79-29l0.12,0.19l-34.52,0.25h-0.19v-0.23l0.18,0.18l-42.38-0.06
		l0.2-0.29l16.23,39.07l0.06,0.15l-0.12,0.12c-6.39,6.27-12.11,13.19-17.06,20.64c-5.3,7.77-9.41,16.29-12.18,25.28
		c-1.39,4.64-2.23,9.43-2.51,14.26c-0.14,4.93,0.24,9.87,1.13,14.72c1.82,9.96,4.43,19.75,7.82,29.29
		c3.23,9.41,6.88,18.55,10.73,27.42s7.9,17.48,12.13,25.77l-0.22-0.14h19.54v0.35l-0.25-0.25l26.18-0.12l-0.22,0.13
		c2.87-5.66,5.54-11.31,8.06-16.87s4.87-11.06,7.11-16.42c4.23-10.26,7.92-20.73,11.05-31.37c2.87-10.07,4.89-19.77,5.25-28.89
		c0.02-8.4-1.63-16.72-4.85-24.48c-2.55-6.31-5.74-12.34-9.51-18c-2.78-4.22-5.81-8.28-9.06-12.15c-2.64-3.17-4.82-5.48-6.31-7
		L131.94,286.23z"/>
	<path class="st1" d="M104.25,278.88c-2.99-0.25-5.86-1.31-8.3-3.05c-2.5-1.62-4.79-3.56-7.34-5.11c-6.3-3.79-13.81-5.03-21-3.47
		c-0.35,0.04-0.67,0.19-0.92,0.43c-0.22,0.33-0.32,0.73-0.27,1.12c0.04,8.85,0.07,17.7,0.1,26.55c-0.09,0.91,0.11,1.83,0.58,2.62
		c0.78,1,2.28,1.17,3.59,1.18c4.21,0.15,8.43-0.16,12.58-0.9c4.17-0.76,8.07-2.58,11.32-5.29c1.48-1.3,2.75-2.82,4.27-4.07
		c1.46-1.34,3.36-2.11,5.34-2.16L104.25,278.88z"/>
	<path class="st1" d="M151.7,300.62c1.06-11,2.12-22,1.38-33c-6.93-2-14.46-0.43-21.15,2.3s-12.92,6.55-19.65,9.19l-2,7.56
		c2.25-0.13,4.49,0.46,6.38,1.69c1.87,1.22,3.64,2.61,5.27,4.14c3.8,3.46,8.1,6.32,12.75,8.49c4.69,2.16,9.93,2.79,15,1.81
		c0.64-0.07,1.22-0.38,1.64-0.87C151.55,301.53,151.68,301.08,151.7,300.62z"/>
	<path class="st2" d="M104.25,278.88c0,0,0,0.16,0,0.49s0,0.86,0,1.5c0,1.36,0,3.32,0,5.86v0.11h-0.11
		c-1.39,0.01-2.74,0.42-3.9,1.19c-1.38,0.93-2.64,2.02-3.75,3.26c-1.31,1.43-2.79,2.68-4.42,3.72c-1.83,1.14-3.8,2.04-5.87,2.67
		c-4.69,1.3-9.56,1.87-14.43,1.69c-1.35,0.13-2.72-0.04-4-0.48c-0.66-0.32-1.16-0.9-1.36-1.61c-0.17-0.67-0.24-1.37-0.21-2.06
		c0-2.71,0-5.48,0-8.29c0-4.14,0-8.19,0-12.1c0-1.95,0-3.87,0-5.75c-0.07-0.51,0.03-1.03,0.28-1.48c0.37-0.35,0.85-0.57,1.36-0.6
		c0.9-0.19,1.8-0.33,2.71-0.42c6.42-0.68,12.88,0.79,18.37,4.19c2.31,1.46,4.21,3,6,4.25c1.49,1.08,3.09,2,4.77,2.74
		c1.07,0.46,2.18,0.8,3.33,1c0.78,0.11,1.23,0.13,1.21,0.15h-0.32c-0.3-0.01-0.6-0.03-0.9-0.07c-1.16-0.16-2.3-0.46-3.38-0.91
		c-1.71-0.72-3.34-1.62-4.85-2.7c-1.79-1.21-3.7-2.75-6-4.18c-5.44-3.33-11.82-4.76-18.16-4.06c-0.89,0.1-1.78,0.24-2.67,0.43
		c-0.42,0.02-0.82,0.18-1.13,0.45c-0.18,0.38-0.25,0.81-0.19,1.23c0,1.88,0,3.8,0,5.75c0,3.91,0.02,7.95,0.05,12.1
		c0,2.81,0,5.58,0,8.29c-0.03,0.65,0.03,1.31,0.18,1.94c0.17,0.59,0.59,1.08,1.15,1.35c1.21,0.41,2.5,0.56,3.77,0.45
		c4.83,0.18,9.65-0.37,14.31-1.64c2.04-0.61,3.99-1.48,5.8-2.59c1.61-1.03,3.09-2.25,4.39-3.65c1.13-1.25,2.42-2.35,3.83-3.27
		c1.19-0.78,2.58-1.19,4-1.18l-0.11,0.11c0-2.51,0.06-4.46,0.07-5.8c0-0.65,0-1.16,0-1.52S104.25,278.88,104.25,278.88z"/>
	<path class="st2" d="M151.7,300.62c0.01,0.31-0.04,0.62-0.13,0.91c-0.11,0.37-0.36,0.68-0.69,0.87c-0.45,0.25-0.95,0.41-1.46,0.49
		c-3.25,0.67-6.6,0.61-9.82-0.18c-4.89-1.25-9.46-3.5-13.42-6.62c-1.15-0.85-2.31-1.78-3.47-2.75s-2.31-2-3.54-3
		c-1.21-1.04-2.56-1.91-4-2.59c-1.5-0.72-3.15-1.03-4.81-0.91h-0.29l0.07-0.28c0.62-2.41,1.29-5,2-7.56v-0.11h0.1
		c3.18-1.24,6.38-2.82,9.64-4.46c5.33-2.7,10.57-5.33,15.94-6.73c5-1.5,10.31-1.59,15.36-0.28h0.12v0.13c0.4,8,0.19,16.03-0.63,24
		c-0.26,2.89-0.49,5.15-0.66,6.7c-0.08,0.75-0.15,1.34-0.2,1.76c0,0.19,0,0.33-0.06,0.45s0,0.15,0,0.15s0-0.05,0-0.15s0-0.27,0-0.46
		c0-0.42,0.09-1,0.15-1.76c0.13-1.57,0.32-3.84,0.56-6.71c0.73-7.96,0.88-15.96,0.47-23.94l0.13,0.16
		c-4.98-1.28-10.22-1.17-15.15,0.32c-5.3,1.4-10.51,4-15.85,6.71c-3.26,1.64-6.47,3.23-9.67,4.48l0.13-0.14l-2,7.55l-0.22-0.26
		c1.72-0.12,3.44,0.21,5,0.95c1.48,0.71,2.86,1.6,4.11,2.66c1.24,1,2.38,2.06,3.53,3s2.3,1.89,3.45,2.75
		c3.91,3.14,8.43,5.43,13.27,6.73c3.18,0.81,6.5,0.91,9.73,0.31c0.5-0.07,0.98-0.22,1.43-0.45c0.32-0.17,0.56-0.46,0.68-0.8
		C151.68,300.94,151.67,300.62,151.7,300.62z"/>
	<path class="st1" d="M104.88,288.56c0,0-2-0.2-5,4.74s-12.82,28.94-12.82,28.94l22,12.81l1.06-44.24L104.88,288.56z"/>
	<path class="st1" d="M112.05,290.44l6.67,30.66l16.7-12.45c0,0-11.89-18-21.91-20.46L112.05,290.44z"/>
	<path class="st2" d="M104.88,288.56c0.12,0.03,0.23,0.07,0.34,0.12l1,0.41l4,1.64h0.05v0.06c-0.12,8-0.47,24.57-0.93,44.25v0.36
		l-0.32-0.18l-6.14-3.57L87,322.4l-0.16-0.09l0.07-0.17c4.33-10.43,8.15-19.34,11.14-25.52c1.04-2.48,2.52-4.76,4.35-6.73
		c0.51-0.51,1.11-0.92,1.77-1.21c0.17-0.08,0.35-0.13,0.54-0.15c0.12,0,0.19,0,0.19,0h-0.19c-0.18,0.04-0.35,0.1-0.51,0.17
		c-0.64,0.31-1.21,0.74-1.7,1.25c-1.78,1.99-3.21,4.27-4.23,6.74c-2.92,6.2-6.68,15.13-11,25.57L87.18,322
		c4.93,2.86,10.3,6,15.9,9.23l6.14,3.58l-0.32,0.18c0.48-19.68,0.92-36.23,1.18-44.24l0.05,0.09l-3.92-1.72l-1-0.45
		C105.1,288.64,104.99,288.61,104.88,288.56z"/>
	<path class="st2" d="M112.05,290.44c0,0,0-0.05,0.07-0.15l0.25-0.44l1-1.7l0,0h0.06c2.43,0.52,6.12,2.59,10,6.14
		c4.55,4.28,8.61,9.04,12.11,14.21l0.11,0.16l-0.16,0.12l-7.62,5.72l-9,6.74l-0.26,0.19l-0.07-0.32c-1.89-8.85-3.54-16.52-4.71-22
		c-0.56-2.7-1-4.87-1.33-6.39c-0.14-0.72-0.26-1.29-0.34-1.71c-0.05-0.19-0.08-0.38-0.09-0.58c0.07,0.19,0.12,0.39,0.16,0.59
		c0.1,0.42,0.24,1,0.41,1.72c0.35,1.52,0.84,3.69,1.45,6.39c1.21,5.47,2.9,13.1,4.86,21.92l-0.33-0.13l9-6.75
		c2.64-2,5.2-3.88,7.63-5.7l-0.05,0.29c-3.46-5.17-7.47-9.95-11.95-14.26c-3.82-3.57-7.42-5.66-9.81-6.23h0.08
		c-0.45,0.7-0.81,1.24-1.07,1.64l-0.29,0.43L112.05,290.44z"/>
	<path class="st2" d="M103.07,284.56c0,0.06-1.15,0-3-0.09s-4.41-0.09-7.24,0.07c-2.41,0.14-4.81,0.4-7.19,0.78
		c-1.83,0.29-2.95,0.52-3,0.46c0.25-0.13,0.51-0.22,0.78-0.28c0.5-0.15,1.24-0.32,2.15-0.5c2.38-0.48,4.79-0.78,7.22-0.91
		c2.42-0.14,4.85-0.12,7.27,0.06c0.93,0.07,1.68,0.15,2.2,0.23C102.54,284.4,102.81,284.46,103.07,284.56z"/>
	<path class="st2" d="M102.93,281.71c-0.92-0.16-1.83-0.37-2.72-0.64c-2.17-0.54-4.37-0.95-6.59-1.25c-2.6-0.33-5-0.45-6.7-0.53
		c-0.93,0-1.86-0.05-2.79-0.17c0.24-0.07,0.5-0.1,0.75-0.09c0.48,0,1.18,0,2,0c2.25-0.01,4.5,0.13,6.74,0.41
		c2.24,0.28,4.45,0.74,6.62,1.37c0.83,0.25,1.49,0.47,1.95,0.64C102.45,281.51,102.7,281.59,102.93,281.71z"/>
	<path class="st2" d="M138.78,281.98c0,0.07-1.3-0.28-3.39-0.67c-2.73-0.5-5.5-0.72-8.27-0.66c-2.77,0.07-5.52,0.45-8.21,1.13
		c-2.06,0.53-3.3,1-3.33,0.92c0.27-0.17,0.55-0.3,0.85-0.4c0.79-0.31,1.59-0.58,2.4-0.81c2.69-0.78,5.48-1.21,8.28-1.28
		c2.8-0.06,5.6,0.21,8.34,0.8c1,0.23,1.88,0.46,2.45,0.64C138.21,281.72,138.5,281.83,138.78,281.98z"/>
	<path class="st2" d="M135.55,288.81c-0.26,0.06-0.53,0.08-0.8,0.06c-0.52,0-1.27,0-2.19,0c-2.41-0.1-4.8-0.37-7.17-0.82
		c-2.38-0.46-4.72-1.09-7-1.9c-0.87-0.32-1.57-0.59-2-0.8s-0.73-0.34-0.71-0.37s1.09,0.33,2.85,0.88c2.3,0.72,4.64,1.31,7,1.76
		c2.35,0.44,4.72,0.76,7.11,0.95C133.61,288.6,134.59,288.68,135.55,288.81z"/>
	<path class="st1" d="M115.76,286.11c0.09-1.52-0.06-3.05-0.44-4.53c-0.29-1.28-0.2-2.47-1.6-3.49c-1.34-0.81-2.98-0.93-4.43-0.33
		c-0.78-1.25-2.65-1.17-4-0.6c-1.35,0.65-2.32,1.9-2.6,3.37c-0.27,1.46-0.19,2.96,0.25,4.37c0.48,2.11,1.58,4.03,3.17,5.51
		c1.49,1.28,3.52,1.71,5.4,1.14C113.93,290.81,115.63,288.64,115.76,286.11z"/>
	<path class="st2" d="M115.76,286.11c0.02,0.16,0.02,0.31,0,0.47c-0.06,0.45-0.16,0.89-0.3,1.32c-0.94,2.81-3.81,4.52-6.73,4
		c-1.33-0.27-2.54-0.97-3.43-2c-0.98-1.09-1.73-2.38-2.2-3.77c-0.56-1.47-0.82-3.04-0.77-4.62c0.05-1.82,1.02-3.48,2.59-4.41
		c0.76-0.38,1.59-0.56,2.44-0.54c0.84-0.01,1.63,0.41,2.1,1.1l-0.26-0.07c0.9-0.41,1.91-0.51,2.87-0.3c0.9,0.12,1.73,0.55,2.35,1.21
		c0.51,0.6,0.82,1.33,0.9,2.11c0.1,0.69,0.24,1.3,0.35,1.88c0.17,0.89,0.24,1.79,0.23,2.7c0,0.31,0,0.55-0.05,0.72
		c0.01,0.08,0.01,0.16,0,0.24c0,0,0-0.34,0-1c-0.07-0.89-0.21-1.78-0.43-2.65c-0.12-0.56-0.29-1.19-0.4-1.88
		c-0.08-0.72-0.38-1.4-0.86-1.94c-0.58-0.56-1.33-0.92-2.14-1c-0.88-0.18-1.8-0.08-2.62,0.29l-0.16,0.09l-0.1-0.16
		c-0.41-0.58-1.08-0.91-1.79-0.89c-0.77-0.02-1.53,0.15-2.22,0.5c-1.43,0.86-2.32,2.4-2.36,4.07c-0.05,1.52,0.2,3.03,0.74,4.45
		c0.45,1.34,1.16,2.58,2.09,3.64c0.83,0.96,1.96,1.62,3.21,1.88c1.09,0.22,2.21,0.11,3.24-0.31c1.51-0.61,2.69-1.83,3.26-3.36
		C115.5,287.3,115.65,286.71,115.76,286.11z"/>
	<path class="st2" d="M104.99,289.29c0-0.05,0.56-0.48,1.37-1.33c2.13-2.22,3.24-5.23,3.09-8.3c-0.05-1.17-0.23-1.88-0.16-1.9
		c0.28,0.59,0.43,1.23,0.46,1.88c0.34,3.19-0.84,6.35-3.18,8.54C106.13,288.66,105.59,289.04,104.99,289.29z"/>
	<path class="st2" d="M115.58,282.7c-0.11,0.59-0.31,1.16-0.61,1.68c-0.64,1.3-1.5,2.48-2.53,3.5c-1.04,1.02-2.25,1.85-3.58,2.44
		c-0.53,0.28-1.11,0.45-1.71,0.52c1.83-0.82,3.52-1.92,5-3.27C113.5,286.11,114.66,284.47,115.58,282.7z"/>
	<path class="st5" d="M96.8,278.39c-0.37-0.16-0.73-0.34-1.07-0.56l-2.85-1.65c-3.1-1.84-6.33-3.46-9.66-4.86
		c-3.33-1.38-6.86-2.22-10.45-2.51c-1.09-0.06-2.19-0.06-3.28,0c-0.4,0.04-0.8,0.04-1.2,0c0.39-0.11,0.79-0.17,1.19-0.2
		c1.1-0.12,2.2-0.16,3.3-0.11c3.64,0.2,7.23,1.01,10.6,2.41c3.35,1.4,6.58,3.07,9.65,5c1.19,0.73,2.13,1.34,2.78,1.76
		C96.16,277.88,96.49,278.12,96.8,278.39z"/>
	<path class="st5" d="M91.78,281c-1.1-0.02-2.2-0.13-3.29-0.33c-1.1-0.06-2.19-0.2-3.27-0.43c1.1-0.2,2.22-0.2,3.32,0
		C89.66,280.3,90.75,280.56,91.78,281z"/>
	<path class="st5" d="M88.84,285.73c0,0.12-0.6,0.31-1.38,0.43s-1.43,0.13-1.45,0s0.6-0.31,1.38-0.43S88.82,285.62,88.84,285.73z"/>
	<path class="st5" d="M103.95,283.5c-0.19-0.32-0.29-0.69-0.29-1.06c-0.08-0.89,0.04-1.78,0.36-2.61c0.31-0.83,0.81-1.59,1.46-2.2
		c0.51-0.45,0.89-0.63,0.92-0.59c-0.83,0.86-1.5,1.85-2,2.94C104.04,281.12,103.89,282.31,103.95,283.5z"/>
	<path class="st5" d="M109.17,286.16c0.14-0.62,0.34-1.22,0.58-1.8c0.31-1,0.4-1.82,0.53-1.81c0.19,0.64,0.15,1.33-0.11,1.94
		C110.03,285.14,109.68,285.73,109.17,286.16z"/>
	<path class="st5" d="M130.93,272.39c-2.25,1.17-4.57,2.2-6.94,3.1c-2.31,1.04-4.68,1.94-7.1,2.71c2.25-1.17,4.57-2.21,6.94-3.11
		C126.14,274.06,128.51,273.15,130.93,272.39z"/>
	<path class="st5" d="M123.79,281.97c-0.62,0.34-1.3,0.55-2,0.61c-0.69,0.2-1.41,0.27-2.12,0.18c0.62-0.33,1.3-0.54,2-0.61
		C122.36,281.95,123.08,281.89,123.79,281.97z"/>
	<path class="st5" d="M99.66,298.44c0.55-3.18,2.03-6.12,4.25-8.46c0.1,0.08-1.2,1.77-2.37,4.11S99.78,298.5,99.66,298.44z"/>
	<path class="st5" d="M116.73,301.42c-0.42-1.19-0.7-2.42-0.85-3.67c-0.28-1.23-0.43-2.48-0.44-3.74
		C116.15,296.42,116.59,298.91,116.73,301.42L116.73,301.42z"/>
	<g class="st3">
		<path d="M135.63,281.28c-0.5-0.36-1.08-0.58-1.69-0.64c-6.22-1.21-12.66-0.56-18.52,1.86l0.14,0.72c4.25-1.18,8.77-0.9,12.85,0.77
			c1.13,0.55,2.3,1,3.51,1.34c1.24,0.33,2.55,0.06,3.56-0.73c0.96-0.84,1.05-2.3,0.2-3.26C135.67,281.32,135.65,281.3,135.63,281.28
			z"/>
	</g>
	<g class="st3">
		<path d="M104.42,288.4c0,1.54,0.39,3.72,1.5,4.78c0.53,0.59,1.3,0.9,2.09,0.84c0.51-0.11,0.97-0.41,1.28-0.83
			c0.31-0.42,0.56-0.88,0.76-1.36C107.69,291.78,105.54,290.47,104.42,288.4z"/>
	</g>
	<g class="st3">
		<path d="M115.7,289.37c-0.08-0.29-0.33-0.59-0.63-0.54c-0.21,0.06-0.39,0.2-0.51,0.39c-0.68,0.86-1.55,1.54-2.54,2l0.13,0.14
			c0.78,0.35,1.68,0.38,2.48,0.06C115.43,291.08,115.87,290.22,115.7,289.37z"/>
	</g>
	<g class="st3">
		<path d="M109.53,280.15c0.14,1.97-0.32,3.94-1.32,5.64c-0.92,1.3-2,2.47-3.22,3.5l0.28,0.15
			C108.61,287.65,110.35,283.85,109.53,280.15L109.53,280.15z"/>
	</g>
	<g class="st3">
		<path d="M102.42,284.61c-4.6-0.66-9.28-0.43-13.79,0.68c-0.17,0.02-0.33,0.11-0.43,0.25c-0.09,0.2-0.02,0.43,0.16,0.55
			c0.18,0.11,0.38,0.17,0.59,0.19c4.73,0.66,9.55,0.16,14.05-1.44L102.42,284.61z"/>
	</g>
	<path class="st5" d="M66.69,381.57c-0.1-0.2-0.19-0.41-0.24-0.63c-0.16-0.47-0.35-1.08-0.6-1.84c-0.13-0.41-0.27-0.85-0.42-1.34
		s-0.26-1-0.41-1.61c-0.28-1.16-0.65-2.47-0.9-3.95c-1.54-7.69-2.11-15.54-1.7-23.37c0.2-4.32,0.75-8.61,1.67-12.83l0.3-1.44
		c0.13-0.47,0.25-0.93,0.38-1.38c0.25-0.91,0.48-1.8,0.73-2.65s0.58-1.64,0.85-2.41l0.4-1.14c0.16-0.36,0.32-0.71,0.47-1.06
		c0.51-1.25,1.1-2.47,1.77-3.65c0.47-0.91,1-1.78,1.59-2.62l1.14-1.57c0.12-0.19,0.27-0.36,0.43-0.52c-0.1,0.2-0.21,0.4-0.34,0.59
		l-1.06,1.61c-0.55,0.85-1.05,1.74-1.5,2.65c-0.63,1.18-1.2,2.4-1.69,3.65c-0.14,0.35-0.29,0.7-0.45,1.06s-0.25,0.75-0.38,1.13
		c-0.26,0.78-0.53,1.58-0.82,2.41s-0.46,1.73-0.7,2.63c-0.12,0.45-0.24,0.91-0.37,1.38s-0.19,0.95-0.29,1.43
		c-0.87,4.2-1.41,8.46-1.61,12.75c-0.41,7.79,0.1,15.61,1.52,23.28c0.23,1.48,0.57,2.79,0.83,3.95l0.36,1.62
		c0.14,0.49,0.26,0.93,0.38,1.34c0.2,0.77,0.37,1.39,0.5,1.87C66.6,381.13,66.65,381.35,66.69,381.57z"/>
	<path class="st5" d="M86.88,268.26c-1.56-2.49-2.96-5.08-4.21-7.74c-1.41-2.59-2.66-5.26-3.74-8c1.55,2.5,2.95,5.08,4.2,7.74
		C84.53,262.85,85.79,265.52,86.88,268.26z"/>
	<path class="st5" d="M162.99,339.01c-23.7,29.49-57.87,53-93.89,64.57l3.07,7.62c0,0,31.36-9.47,50.86-22.54
		s40.81-36.58,40.81-36.58C164.13,347.7,163.84,343.31,162.99,339.01z"/>
	<path class="st2" d="M159.86,138.5c-0.21,0.2-0.43,0.38-0.67,0.55l-2,1.5c-0.87,0.64-1.92,1.43-3.12,2.39s-2.58,2-4,3.25
		s-3.1,2.58-4.78,4.1s-3.46,3.15-5.32,4.89c-3.65,3.54-7.54,7.56-11.4,12s-7.26,8.87-10.25,13c-1.45,2.09-2.86,4.05-4.08,6
		s-2.37,3.67-3.38,5.31s-1.87,3.15-2.65,4.47s-1.41,2.47-1.92,3.42l-1.2,2.17c-0.13,0.26-0.28,0.5-0.45,0.74
		c0.09-0.27,0.21-0.54,0.35-0.79l1.12-2.22c0.48-1,1.09-2.13,1.85-3.46s1.57-2.88,2.59-4.52s2.07-3.46,3.33-5.35s2.6-3.91,4.05-6
		c3-4.15,6.4-8.6,10.25-13.06s7.78-8.46,11.46-12c1.87-1.73,3.63-3.4,5.36-4.87s3.33-2.84,4.83-4s2.89-2.27,4.11-3.2
		s2.28-1.71,3.17-2.33l2-1.42C159.34,138.85,159.59,138.66,159.86,138.5z"/>
	<path class="st2" d="M97.74,183.14c-0.25-0.31-0.47-0.65-0.66-1c-0.39-0.68-1-1.65-1.69-2.84c-1.89-3.11-3.95-6.11-6.16-9
		c-2.22-2.88-4.59-5.63-7.1-8.26c-1-1-1.76-1.81-2.31-2.37c-0.31-0.27-0.58-0.57-0.82-0.9c0.36,0.22,0.7,0.47,1,0.76
		c0.59,0.51,1.43,1.27,2.43,2.25c5.22,5.13,9.7,10.96,13.31,17.32c0.69,1.22,1.22,2.22,1.56,2.93
		C97.49,182.38,97.63,182.76,97.74,183.14z"/>
	<path class="st2" d="M142.42,212.5c-0.41,0.34-0.86,0.64-1.32,0.91c-0.87,0.54-2.12,1.35-3.64,2.37
		c-7.97,5.32-15.25,11.61-21.67,18.72c-1.23,1.36-2.2,2.48-2.87,3.27c-0.33,0.42-0.69,0.82-1.08,1.18c0.27-0.46,0.58-0.9,0.93-1.31
		c0.61-0.82,1.55-2,2.75-3.38c3.13-3.64,6.53-7.05,10.16-10.2c3.64-3.12,7.49-5.99,11.54-8.56c1.56-1,2.84-1.75,3.75-2.24
		C141.43,212.97,141.92,212.71,142.42,212.5z"/>
	<path class="st2" d="M111.6,246.16c0,0-0.43-0.8-1.23-2.22c-1.16-1.99-2.5-3.88-4-5.63c-2.22-2.58-4.69-4.95-7.37-7.06
		c-3.29-2.58-6.74-4.96-10.31-7.14c-3.79-2.35-7.45-4.51-10.7-6.62c-2.9-1.83-5.68-3.84-8.34-6c-1.78-1.47-3.45-3.06-5-4.76
		c-0.56-0.6-1-1.11-1.23-1.43c-0.15-0.16-0.28-0.34-0.39-0.53c0.17,0.14,0.33,0.29,0.47,0.46c0.31,0.3,0.71,0.79,1.3,1.36
		c1.61,1.64,3.33,3.18,5.13,4.61c2.68,2.12,5.47,4.1,8.37,5.91c3.25,2.07,6.92,4.22,10.72,6.57c3.59,2.19,7.04,4.6,10.33,7.21
		c2.69,2.15,5.15,4.56,7.35,7.21c1.48,1.78,2.78,3.72,3.86,5.77c0.41,0.71,0.63,1.31,0.82,1.7
		C111.47,245.76,111.55,245.96,111.6,246.16z"/>
</g>
<g id="freepik--Table--inject-91">
	<path class="st2" d="M286.57,444.53c0,0.15-77,0.26-172,0.26s-172-0.11-172-0.26s77-0.26,172-0.26S286.57,444.39,286.57,444.53z"/>
</g>
</svg>
