<?xml version="1.0" encoding="utf-8"?>
<!-- Generator: Adobe Illustrator 23.0.2, SVG Export Plug-In . SVG Version: 6.00 Build 0)  -->
<svg version="1.1" id="Calque_1" xmlns="http://www.w3.org/2000/svg" xmlns:xlink="http://www.w3.org/1999/xlink" x="0px" y="0px"
	 viewBox="0 0 130 107" style="enable-background:new 0 0 130 107;" xml:space="preserve">
<style type="text/css">
	.st0{fill:#FF725E;}
	.st1{opacity:0.3;}
	.st2{fill:#FFFFFF;}
	.st3{fill:#263238;}
</style>
<g id="freepik--Box--inject-91">
	<path class="st0" d="M112.41,22.01c-5.88-11.84-20.42-19.72-32.9-15.34c-7.37,2.58-13,8.89-16.18,16
		c-1.15,2.45-2.11,4.98-2.87,7.57c-1.86-1.95-3.87-3.76-6-5.41c-3.47-2.8-7.19-6.86-11.43-8.19c-3-0.95-6-0.56-10.5,0.74
		c-12.72,3.65-22.21,16.13-22,29.36s8.16,25.37,18.38,33.76s26.3,18.4,49.3,18.1c18.91-3.37,28.14-26,33.37-38.2
		S118.29,33.86,112.41,22.01z"/>
	<g class="st1">
		<path d="M112.41,22.01c-5.88-11.84-20.42-19.72-32.9-15.34c-7.37,2.58-13,8.89-16.18,16c-1.15,2.45-2.11,4.98-2.87,7.57
			c-1.86-1.95-3.87-3.76-6-5.41c-3.42-2.76-5.79-7.21-10-8.38c-3.28-0.91-6.91-0.28-11.3,0.75c-12.88,3-22.82,16.31-22.6,29.54
			s8.16,25.37,18.38,33.76s26.3,18.4,49.3,18.1c18.28-3.14,28.14-26,33.37-38.2S118.29,33.86,112.41,22.01z"/>
	</g>
	<path class="st0" d="M120.58,19.66C114.73,7.91,100.23,0.13,87.75,4.5c-7.38,2.59-13,8.87-16.21,16c-1.15,2.43-2.11,4.95-2.89,7.52
		c-1.86-1.93-3.86-3.72-6-5.34c-6.06-4.86-14-7.83-21.7-6.73C27.86,17.81,18.54,31.4,18.71,44.53S26.8,69.7,37,78
		s26.22,18.21,49.21,17.85c13.56-6.78,28.18-25.93,33.44-38S126.44,31.41,120.58,19.66z"/>
	<path class="st2" d="M33.67,84.46l10.55-1.15L111.1,8.68c0,0,7.18,4.95,9.49,11L56.81,90.17l-8.57,2.44
		C48.05,92.8,37.35,87.68,33.67,84.46z"/>
	<path class="st3" d="M122.99,47.78c0,0,0.15-0.76,0.4-2.12c0.34-1.92,0.54-3.87,0.6-5.82c0.11-2.89,0-5.79-0.35-8.67
		c-0.2-1.68-0.5-3.35-0.89-5c-0.39-1.79-0.95-3.53-1.66-5.22c-1.45-3.22-3.48-6.15-6-8.63c-2.04-2.05-4.35-3.82-6.86-5.26
		c-1.69-0.97-3.46-1.79-5.3-2.44c-1.31-0.47-2.05-0.67-2-0.72c0.19,0.02,0.37,0.05,0.55,0.1c0.36,0.1,0.89,0.2,1.55,0.43
		c1.89,0.58,3.71,1.35,5.43,2.31c2.56,1.42,4.92,3.18,7,5.24c2.59,2.51,4.68,5.48,6.16,8.76c0.72,1.71,1.28,3.49,1.68,5.31
		c0.39,1.68,0.68,3.38,0.87,5.1c0.32,2.9,0.41,5.83,0.24,8.74c-0.1,1.97-0.36,3.92-0.78,5.85c-0.13,0.68-0.31,1.2-0.4,1.55
		C123.17,47.46,123.09,47.63,122.99,47.78z"/>
	<path class="st2" d="M28.28,61.2c-0.29-0.19-0.55-0.43-0.77-0.69c-0.29-0.28-0.57-0.59-0.82-0.91c-0.36-0.41-0.69-0.83-1-1.28
		c-0.79-1.16-1.46-2.39-2-3.69c-1.32-3.19-1.85-6.66-1.54-10.1c0.13-1.4,0.4-2.78,0.82-4.12c0.15-0.52,0.34-1.03,0.55-1.52
		c0.14-0.38,0.31-0.75,0.51-1.1c0.14-0.32,0.31-0.62,0.53-0.89c0.1,0-0.61,1.34-1.24,3.61c-0.36,1.33-0.59,2.69-0.69,4.06
		c-0.26,3.37,0.26,6.74,1.51,9.88c0.51,1.28,1.13,2.51,1.87,3.67C27.29,60.09,28.36,61.12,28.28,61.2z"/>
	<path class="st2" d="M27.58,29.61c0.1,0.11-0.66,0.91-1.25,2.11s-0.77,2.27-0.92,2.26c-0.17-0.86-0.01-1.76,0.46-2.5
		C26.5,30.16,27.49,29.48,27.58,29.61z"/>
	<path class="st2" d="M118.32,45.54c0.01,0.17-0.01,0.34-0.06,0.51l-0.3,1.45c-0.13,0.64-0.3,1.4-0.55,2.29s-0.49,1.89-0.86,3
		c-0.8,2.58-1.76,5.11-2.85,7.58c-1.36,3.02-2.91,5.95-4.63,8.77c-1.75,2.81-3.68,5.5-5.78,8.06c-1.72,2.08-3.56,4.07-5.5,5.94
		c-0.81,0.82-1.61,1.49-2.29,2.1s-1.29,1.12-1.8,1.51l-1.12,0.86c-0.13,0.11-0.27,0.21-0.42,0.29c0,0,0.11-0.14,0.36-0.37l1.1-1
		c0.49-0.42,1.08-0.94,1.73-1.57s1.44-1.32,2.23-2.15c1.9-1.91,3.7-3.91,5.39-6c2.05-2.56,3.96-5.23,5.71-8
		c1.71-2.81,3.26-5.71,4.63-8.7c1.11-2.44,2.09-4.94,2.94-7.49c0.4-1.08,0.66-2.08,0.93-2.95s0.48-1.63,0.63-2.25
		s0.29-1.05,0.39-1.43C118.23,45.84,118.27,45.69,118.32,45.54z"/>
	<path class="st0" d="M116.12,13.61c-0.05,0.08-0.1,0.15-0.17,0.22c-0.13,0.17-0.31,0.37-0.52,0.63l-2.07,2.39l-7.65,8.76
		L80.3,54.21C67.9,68.12,56.93,80.36,50.4,87.57l0,0l0,0c-2.89,0.63-5.2,0.91-6.77,1.19l-1.8,0.31c-0.2,0.06-0.41,0.09-0.62,0.1
		c0.2-0.07,0.4-0.13,0.61-0.17c0.4-0.11,1-0.24,1.78-0.39c1.56-0.33,3.88-0.66,6.73-1.32l-0.07,0.05
		c6.42-7.31,17.32-19.6,29.72-33.51l25.52-28.51l7.78-8.6l2.14-2.32l0.56-0.59C116.04,13.71,116.11,13.61,116.12,13.61z"/>
	<path class="st3" d="M61.16,21.52l-0.34-0.19l-1-0.62l-1.6-1c-0.62-0.42-1.43-0.74-2.28-1.19c-0.44-0.22-0.89-0.46-1.38-0.68
		l-1.59-0.58c-0.56-0.18-1.12-0.44-1.74-0.59l-1.94-0.45c-3.05-0.63-6.21-0.63-9.26,0c-3.69,0.83-7.13,2.51-10.06,4.91
		c-3.42,2.69-6.16,6.14-8,10.08c-2.07,4.32-3.1,9.07-3,13.86c0.04,2.53,0.37,5.05,1,7.5c0.61,2.53,1.51,4.98,2.68,7.31
		c2.54,4.49,5.56,8.7,9,12.54c3.21,3.57,6.78,6.8,10.65,9.64l2.77,2c0.94,0.61,1.89,1.17,2.81,1.74l1.38,0.85l1.41,0.74l2.76,1.45
		c3.42,1.62,6.95,2.98,10.58,4.07l2.44,0.71c0.8,0.23,1.59,0.35,2.36,0.53c1.43,0.35,2.87,0.62,4.33,0.82
		c1.37,0.18,2.64,0.42,3.82,0.51l3.22,0.23c0.86,0.07,1.72,0.1,2.58,0.08h1.9h1.16h0.4c-0.13,0.01-0.27,0.01-0.4,0h-1.16h-1.9
		c-0.86,0.05-1.73,0.05-2.59,0l-3.24-0.19c-1.18-0.06-2.45-0.3-3.83-0.46c-1.47-0.19-2.93-0.45-4.37-0.78
		c-0.76-0.18-1.56-0.3-2.36-0.52l-2.46-0.7c-3.65-1.06-7.22-2.39-10.67-4l-2.78-1.45l-1.42-0.74l-1.39-0.85
		c-0.93-0.57-1.89-1.13-2.84-1.74l-2.79-2c-3.9-2.86-7.51-6.1-10.75-9.69c-3.44-3.88-6.46-8.12-9-12.64
		c-1.19-2.36-2.11-4.85-2.73-7.42c-0.63-2.49-0.97-5.05-1-7.62c-0.1-4.83,0.94-9.62,3.04-13.98c1.87-3.99,4.65-7.49,8.12-10.21
		c2.98-2.43,6.49-4.12,10.25-4.93c3.1-0.63,6.3-0.61,9.39,0.05l2,0.47c0.63,0.16,1.19,0.42,1.75,0.62l1.6,0.6
		c0.49,0.23,0.94,0.48,1.38,0.7c0.78,0.38,1.54,0.79,2.27,1.25l1.58,1.06l1,0.66C61.01,21.35,61.09,21.43,61.16,21.52z"/>
	<path class="st3" d="M40.95,15.92l-0.36,0.06l-1.07,0.14c-0.94,0.08-2.31,0.32-4.07,0.66c-4.96,1.06-9.61,3.23-13.6,6.36
		c-1.3,1.05-2.51,2.21-3.62,3.46c-1.21,1.34-2.29,2.8-3.22,4.35c-2.07,3.42-3.43,7.23-4,11.19c-0.58,4.38-0.29,8.84,0.86,13.11
		c0.58,2.26,1.36,4.46,2.35,6.58c1.08,2.15,2.34,4.2,3.77,6.13c2.83,3.82,6,7.39,9.46,10.65c3.27,2.99,6.77,5.71,10.48,8.14
		c6.33,4.04,13.22,7.13,20.45,9.17c4.88,1.36,9.88,2.23,14.93,2.62c1.79,0.14,3.18,0.12,4.13,0.18l1.07,0.05h0.37
		c-0.12,0.01-0.25,0.01-0.37,0h-1.07c-1,0-2.35,0-4.14-0.09c-5.07-0.3-10.1-1.13-15-2.46c-7.28-2.01-14.23-5.09-20.61-9.13
		c-3.74-2.43-7.27-5.16-10.56-8.17c-3.5-3.25-6.7-6.82-9.55-10.65c-1.45-1.96-2.73-4.04-3.82-6.22c-0.99-2.15-1.79-4.38-2.37-6.67
		c-1.16-4.34-1.45-8.86-0.85-13.31c0.59-4.02,1.98-7.88,4.09-11.35c1.87-3,4.23-5.66,7-7.86c4.04-3.13,8.76-5.27,13.78-6.25
		c1.36-0.26,2.72-0.45,4.1-0.57l1.07-0.08C40.7,15.93,40.83,15.92,40.95,15.92z"/>
</g>
</svg>
